<mxfile host="app.diagrams.net" agent="Mozilla/5.0 (Macintosh; Intel Mac OS X 10_15_7) AppleWebKit/537.36 (KHTML, like Gecko) Chrome/131.0.0.0 Safari/537.36" version="25.0.3">
  <diagram name="Pagina-1" id="WdFEvMCltMFCAz6ynwFG">
    <mxGraphModel dx="1211" dy="772" grid="1" gridSize="10" guides="1" tooltips="1" connect="1" arrows="1" fold="1" page="1" pageScale="1" pageWidth="827" pageHeight="1169" math="0" shadow="0">
      <root>
        <mxCell id="0" />
        <mxCell id="1" parent="0" />
        <mxCell id="PLc-m31AAzMhh2hm86C_-2" value="" style="html=1;shape=mxgraph.basic.isocube;isoAngle=15;" vertex="1" parent="1">
          <mxGeometry x="500" y="210" width="60" height="100" as="geometry" />
        </mxCell>
        <mxCell id="PLc-m31AAzMhh2hm86C_-3" value="CPU" style="text;html=1;align=center;verticalAlign=middle;whiteSpace=wrap;rounded=0;" vertex="1" parent="1">
          <mxGeometry x="500" y="210" width="60" height="30" as="geometry" />
        </mxCell>
        <mxCell id="PLc-m31AAzMhh2hm86C_-10" style="edgeStyle=orthogonalEdgeStyle;rounded=0;orthogonalLoop=1;jettySize=auto;html=1;" edge="1" parent="1" source="PLc-m31AAzMhh2hm86C_-5" target="PLc-m31AAzMhh2hm86C_-7">
          <mxGeometry relative="1" as="geometry" />
        </mxCell>
        <mxCell id="PLc-m31AAzMhh2hm86C_-5" value="" style="verticalLabelPosition=bottom;verticalAlign=top;html=1;shape=mxgraph.basic.pyramid;dx1=0.4;dx2=0.6;dy1=0.9;dy2=0.8;" vertex="1" parent="1">
          <mxGeometry x="414" y="140" width="30" height="40" as="geometry" />
        </mxCell>
        <mxCell id="PLc-m31AAzMhh2hm86C_-7" value="" style="verticalLabelPosition=bottom;verticalAlign=top;html=1;shape=mxgraph.basic.pyramid;dx1=1;dx2=0.6;dy1=0.9;dy2=0.8;" vertex="1" parent="1">
          <mxGeometry x="620" y="140" width="30" height="40" as="geometry" />
        </mxCell>
        <mxCell id="PLc-m31AAzMhh2hm86C_-8" value="Channel estimation&lt;div&gt;Receive combining&lt;/div&gt;" style="rounded=1;whiteSpace=wrap;html=1;" vertex="1" parent="1">
          <mxGeometry x="365" y="190" width="110" height="30" as="geometry" />
        </mxCell>
        <mxCell id="PLc-m31AAzMhh2hm86C_-9" value="AP" style="text;html=1;align=center;verticalAlign=middle;whiteSpace=wrap;rounded=0;" vertex="1" parent="1">
          <mxGeometry x="399" y="110" width="60" height="30" as="geometry" />
        </mxCell>
        <mxCell id="PLc-m31AAzMhh2hm86C_-11" style="edgeStyle=orthogonalEdgeStyle;rounded=0;orthogonalLoop=1;jettySize=auto;html=1;entryX=1.017;entryY=0.74;entryDx=0;entryDy=0;entryPerimeter=0;" edge="1" parent="1" source="PLc-m31AAzMhh2hm86C_-7" target="PLc-m31AAzMhh2hm86C_-2">
          <mxGeometry relative="1" as="geometry">
            <Array as="points">
              <mxPoint x="640" y="284" />
            </Array>
          </mxGeometry>
        </mxCell>
        <mxCell id="PLc-m31AAzMhh2hm86C_-12" value="Data detection" style="rounded=1;whiteSpace=wrap;html=1;" vertex="1" parent="1">
          <mxGeometry x="475" y="320" width="110" height="30" as="geometry" />
        </mxCell>
        <mxCell id="PLc-m31AAzMhh2hm86C_-14" value="" style="endArrow=none;html=1;rounded=0;entryX=0;entryY=0;entryDx=18;entryDy=40;entryPerimeter=0;exitX=0.5;exitY=0;exitDx=0;exitDy=0;" edge="1" parent="1" source="PLc-m31AAzMhh2hm86C_-8" target="PLc-m31AAzMhh2hm86C_-5">
          <mxGeometry width="50" height="50" relative="1" as="geometry">
            <mxPoint x="420" y="230" as="sourcePoint" />
            <mxPoint x="470" y="180" as="targetPoint" />
          </mxGeometry>
        </mxCell>
        <mxCell id="PLc-m31AAzMhh2hm86C_-15" value="" style="endArrow=none;html=1;rounded=0;entryX=0.5;entryY=1;entryDx=0;entryDy=0;entryPerimeter=0;" edge="1" parent="1" target="PLc-m31AAzMhh2hm86C_-2">
          <mxGeometry width="50" height="50" relative="1" as="geometry">
            <mxPoint x="530" y="320" as="sourcePoint" />
            <mxPoint x="570" y="280" as="targetPoint" />
          </mxGeometry>
        </mxCell>
        <mxCell id="PLc-m31AAzMhh2hm86C_-16" value="" style="html=1;shape=mxgraph.basic.isocube;isoAngle=15;" vertex="1" parent="1">
          <mxGeometry x="195" y="470" width="60" height="100" as="geometry" />
        </mxCell>
        <mxCell id="PLc-m31AAzMhh2hm86C_-17" value="CPU" style="text;html=1;align=center;verticalAlign=middle;whiteSpace=wrap;rounded=0;" vertex="1" parent="1">
          <mxGeometry x="195" y="470" width="60" height="30" as="geometry" />
        </mxCell>
        <mxCell id="PLc-m31AAzMhh2hm86C_-27" style="edgeStyle=orthogonalEdgeStyle;rounded=0;orthogonalLoop=1;jettySize=auto;html=1;exitX=0;exitY=0;exitDx=18;exitDy=40;exitPerimeter=0;entryX=0;entryY=0.5;entryDx=0;entryDy=0;" edge="1" parent="1" source="PLc-m31AAzMhh2hm86C_-19" target="PLc-m31AAzMhh2hm86C_-17">
          <mxGeometry relative="1" as="geometry" />
        </mxCell>
        <mxCell id="PLc-m31AAzMhh2hm86C_-19" value="" style="verticalLabelPosition=bottom;verticalAlign=top;html=1;shape=mxgraph.basic.pyramid;dx1=0.4;dx2=0.6;dy1=0.9;dy2=0.8;" vertex="1" parent="1">
          <mxGeometry x="109" y="400" width="30" height="40" as="geometry" />
        </mxCell>
        <mxCell id="PLc-m31AAzMhh2hm86C_-20" value="" style="verticalLabelPosition=bottom;verticalAlign=top;html=1;shape=mxgraph.basic.pyramid;dx1=1;dx2=0.6;dy1=0.9;dy2=0.8;" vertex="1" parent="1">
          <mxGeometry x="315" y="400" width="30" height="40" as="geometry" />
        </mxCell>
        <mxCell id="PLc-m31AAzMhh2hm86C_-22" value="AP" style="text;html=1;align=center;verticalAlign=middle;whiteSpace=wrap;rounded=0;" vertex="1" parent="1">
          <mxGeometry x="94" y="370" width="60" height="30" as="geometry" />
        </mxCell>
        <mxCell id="PLc-m31AAzMhh2hm86C_-23" style="edgeStyle=orthogonalEdgeStyle;rounded=0;orthogonalLoop=1;jettySize=auto;html=1;entryX=1;entryY=0.23;entryDx=0;entryDy=0;entryPerimeter=0;" edge="1" parent="1" source="PLc-m31AAzMhh2hm86C_-20" target="PLc-m31AAzMhh2hm86C_-16">
          <mxGeometry relative="1" as="geometry">
            <Array as="points">
              <mxPoint x="335" y="493" />
            </Array>
          </mxGeometry>
        </mxCell>
        <mxCell id="PLc-m31AAzMhh2hm86C_-24" value="&lt;div&gt;Channel estimation&lt;div&gt;Receive combining&lt;/div&gt;&lt;/div&gt;Data detection" style="rounded=1;whiteSpace=wrap;html=1;" vertex="1" parent="1">
          <mxGeometry x="170" y="580" width="110" height="50" as="geometry" />
        </mxCell>
        <mxCell id="PLc-m31AAzMhh2hm86C_-26" value="" style="endArrow=none;html=1;rounded=0;entryX=0.5;entryY=1;entryDx=0;entryDy=0;entryPerimeter=0;" edge="1" parent="1" target="PLc-m31AAzMhh2hm86C_-16">
          <mxGeometry width="50" height="50" relative="1" as="geometry">
            <mxPoint x="225" y="580" as="sourcePoint" />
            <mxPoint x="265" y="540" as="targetPoint" />
          </mxGeometry>
        </mxCell>
        <mxCell id="PLc-m31AAzMhh2hm86C_-28" value="Data estimate" style="text;html=1;align=center;verticalAlign=middle;whiteSpace=wrap;rounded=0;" vertex="1" parent="1">
          <mxGeometry x="444" y="800" width="60" height="30" as="geometry" />
        </mxCell>
        <mxCell id="PLc-m31AAzMhh2hm86C_-39" value="" style="html=1;shape=mxgraph.basic.isocube;isoAngle=15;" vertex="1" parent="1">
          <mxGeometry x="495" y="820" width="60" height="100" as="geometry" />
        </mxCell>
        <mxCell id="PLc-m31AAzMhh2hm86C_-40" value="CPU" style="text;html=1;align=center;verticalAlign=middle;whiteSpace=wrap;rounded=0;" vertex="1" parent="1">
          <mxGeometry x="495" y="820" width="60" height="30" as="geometry" />
        </mxCell>
        <mxCell id="PLc-m31AAzMhh2hm86C_-50" style="edgeStyle=orthogonalEdgeStyle;rounded=0;orthogonalLoop=1;jettySize=auto;html=1;entryX=0;entryY=0.5;entryDx=0;entryDy=0;" edge="1" parent="1" source="PLc-m31AAzMhh2hm86C_-42" target="PLc-m31AAzMhh2hm86C_-40">
          <mxGeometry relative="1" as="geometry">
            <Array as="points">
              <mxPoint x="450" y="770" />
              <mxPoint x="450" y="835" />
            </Array>
          </mxGeometry>
        </mxCell>
        <mxCell id="PLc-m31AAzMhh2hm86C_-42" value="" style="verticalLabelPosition=bottom;verticalAlign=top;html=1;shape=mxgraph.basic.pyramid;dx1=0.4;dx2=0.6;dy1=0.9;dy2=0.8;" vertex="1" parent="1">
          <mxGeometry x="409" y="750" width="30" height="40" as="geometry" />
        </mxCell>
        <mxCell id="PLc-m31AAzMhh2hm86C_-43" value="" style="verticalLabelPosition=bottom;verticalAlign=top;html=1;shape=mxgraph.basic.pyramid;dx1=1;dx2=0.6;dy1=0.9;dy2=0.8;" vertex="1" parent="1">
          <mxGeometry x="615" y="750" width="30" height="40" as="geometry" />
        </mxCell>
        <mxCell id="PLc-m31AAzMhh2hm86C_-44" value="Channel estimation&lt;div&gt;Receive combining&lt;/div&gt;" style="rounded=1;whiteSpace=wrap;html=1;" vertex="1" parent="1">
          <mxGeometry x="304" y="800" width="110" height="30" as="geometry" />
        </mxCell>
        <mxCell id="PLc-m31AAzMhh2hm86C_-45" value="AP" style="text;html=1;align=center;verticalAlign=middle;whiteSpace=wrap;rounded=0;" vertex="1" parent="1">
          <mxGeometry x="394" y="720" width="60" height="30" as="geometry" />
        </mxCell>
        <mxCell id="PLc-m31AAzMhh2hm86C_-46" style="edgeStyle=orthogonalEdgeStyle;rounded=0;orthogonalLoop=1;jettySize=auto;html=1;entryX=1;entryY=0.36;entryDx=0;entryDy=0;entryPerimeter=0;" edge="1" parent="1" source="PLc-m31AAzMhh2hm86C_-43" target="PLc-m31AAzMhh2hm86C_-39">
          <mxGeometry relative="1" as="geometry">
            <Array as="points">
              <mxPoint x="635" y="856" />
            </Array>
          </mxGeometry>
        </mxCell>
        <mxCell id="PLc-m31AAzMhh2hm86C_-47" value="Data detection" style="rounded=1;whiteSpace=wrap;html=1;" vertex="1" parent="1">
          <mxGeometry x="470" y="930" width="110" height="30" as="geometry" />
        </mxCell>
        <mxCell id="PLc-m31AAzMhh2hm86C_-48" value="" style="endArrow=none;html=1;rounded=0;entryX=0;entryY=0;entryDx=18;entryDy=40;entryPerimeter=0;exitX=0.5;exitY=0;exitDx=0;exitDy=0;" edge="1" parent="1" source="PLc-m31AAzMhh2hm86C_-44" target="PLc-m31AAzMhh2hm86C_-42">
          <mxGeometry width="50" height="50" relative="1" as="geometry">
            <mxPoint x="415" y="840" as="sourcePoint" />
            <mxPoint x="465" y="790" as="targetPoint" />
          </mxGeometry>
        </mxCell>
        <mxCell id="PLc-m31AAzMhh2hm86C_-49" value="" style="endArrow=none;html=1;rounded=0;entryX=0.5;entryY=1;entryDx=0;entryDy=0;entryPerimeter=0;" edge="1" parent="1" target="PLc-m31AAzMhh2hm86C_-39">
          <mxGeometry width="50" height="50" relative="1" as="geometry">
            <mxPoint x="525" y="930" as="sourcePoint" />
            <mxPoint x="565" y="890" as="targetPoint" />
          </mxGeometry>
        </mxCell>
      </root>
    </mxGraphModel>
  </diagram>
</mxfile>
